<svg xmlns="http://www.w3.org/2000/svg" width="760" height="300" viewBox="0 0 760 300">
<rect width="100%" height="100%" fill="white"/>
<text x="20" y="22" font-family="Arial" font-size="16" font-weight="700">random subset F1 vs size</text>
<line x1="70" y1="250" x2="730" y2="250" stroke="#444"/>
<line x1="70" y1="30" x2="70" y2="250" stroke="#444"/>
<text x="58.0" y="276" font-family="Arial" font-size="11">10</text>
<text x="223.0" y="276" font-family="Arial" font-size="11">50</text>
<text x="388.0" y="276" font-family="Arial" font-size="11">100</text>
<text x="553.0" y="276" font-family="Arial" font-size="11">250</text>
<text x="718.0" y="276" font-family="Arial" font-size="11">all</text>
<polyline fill="none" stroke="#2f6fbb" stroke-width="2" points="70.0,94.0 235.0,117.3 400.0,114.5 565.0,113.6 730.0,115.4"/>
<circle cx="70.0" cy="94.0" r="3" fill="#2f6fbb"/>
<circle cx="235.0" cy="117.3" r="3" fill="#2f6fbb"/>
<circle cx="400.0" cy="114.5" r="3" fill="#2f6fbb"/>
<circle cx="565.0" cy="113.6" r="3" fill="#2f6fbb"/>
<circle cx="730.0" cy="115.4" r="3" fill="#2f6fbb"/>
<polyline fill="none" stroke="#c45746" stroke-width="2" points="70.0,207.1 235.0,205.2 400.0,207.1 565.0,199.1 730.0,200.5"/>
<circle cx="70.0" cy="207.1" r="3" fill="#c45746"/>
<circle cx="235.0" cy="205.2" r="3" fill="#c45746"/>
<circle cx="400.0" cy="207.1" r="3" fill="#c45746"/>
<circle cx="565.0" cy="199.1" r="3" fill="#c45746"/>
<circle cx="730.0" cy="200.5" r="3" fill="#c45746"/>
</svg>